<?xml version="1.0" encoding="UTF-8"?>
<svg id="Layer_1" xmlns="http://www.w3.org/2000/svg" viewBox="0 0 200 50">
  <defs>
    <style>
      .cls-1 {
        fill: #ff4343;
      }
    </style>
  </defs>
  <path class="cls-1" d="M15.31,43.84h-2.07v-2.07h-1.03v-5.23h1v-3.14h1.04v-2.09h1.06v-1.06h1.04v-1.04h1.04v-1.04h1.03v-2.12h-3.08v-1.04h-3.16v-1.06h-1.04v-1.04h-1.06v-1.06l-.02.02h2.07v1.02h1.04v1.03h8.41v-.99h1.04v-1.06h2.11v-1.04h1.04v-1.04h1.04v-1.04h1.06v-1.06h1.04v-1.05h2.09v-1.04h1.04v-1.06h2.11v-1.04h1.04v-1.05h2.09v-1.04h2.09v-1.04h1.05v-1.04h2.11v-1.06h3.14v-1.04h2.09v-1.03h9.43v1h1.04v1.04h1.02v2.09h-1v2.09h-1.04v1.04h-1.04v1.04h-1.04v1.06h-1.06v1.05h-2.09v1.04h-2.09v1.04h-2.11v1.06h-2.09v1.05h-2.09v1.04h-3.14v1.04h-3.14v1.06h-4.21v1.04h-6.29v1.04h-3.14v1.04h-1.05v1.04h-1.06v1.06h-1.04v1.04h-1.04v1.04h-1.04v2.11h-1.06v1.04h-1.04v2.09h-1.04v2.09h-1.04v3.17h1.01v2.11l.02-.02ZM46.77,9.25h-2.11v1.05h-1.04v1.04h-2.11v1.06h-1.04v1.04h-2.09v1.05h-1.04v1.04h-1.04v1.06h-2.11v1.05h-1.04v1.04h-1.04v1.04h-1.06v1.06h-1.04v1.04h-1.04v1.04h-2.05v1.02h3.15v-1.03h5.24v-1.04h4.19v-1.04h2.06c.02-.36.03-.68.05-1.06h3.14v-1.04h2.09v-1.05h2.09v-1.05h2.11v-1.06h1.04v-1.04h2.09v-1.05h1.04v-1.04h1.04v-2.09h1.01v-2.12h-1.05v-1.02h-6.27c-.02.35-.03.67-.05,1.05h-3.12v1.04Z"/>
  <path class="cls-1" d="M63.53,33.35h1.06v3.15h1.05v-1.01h1.06v-1.05h2.09v-1.05h2.09v-1.02h2.09v.99h1.03v4.17h-.99v1.06h-1.06v1.04h-1.04v1.04h-1.04v1.04h-1.06v1.06h-1.02v1.09h3.12l-.02-.02v1.03h-2.07v1.03h-2.09v-1.01h-1.02v-3.12h.99v-2.09h1.06v-1.06h1.04v-1.04h1.04v-1.04h1.04v-1.04h1.03v-1.05h-2.05v.99h-2.09v1.04h-1.04v1.06h-2.11v1.04h-1.04v1.04h-1.04v1.04h-1.06v1.06h-1.04v1.04h-1.04v1.04h-1.04v1.04h-1.04v1.04h-3.12v-2.02h1v-1.06h1.04v-1.04h1.04v-1.04h1.04v-1.04c.38-.02.7-.03,1.06-.05v-2.06h1.04v-1.04h1.04v-1.04h1.03v-1.06h-2.07v1h-1.04v1.05h-2.09v1.04h-1.06v1.06h-1.04v1.04h-1.04v1.05h-2.09v1.03h-1.04v-.99h-1.07v1h-1.04v1.08c-.73,0-1.42,0-2.11,0,0-.34,0-.68,0-1.06h1.08v-1.04h1.04v-1.06h1.06v-1.04h1.04v-2.09h.99v-2.06h-3.15v1.03h-1.04v1.04h-1.04v1.04h-1.06v1.06h-1.04v1.04h-1.04v1.04h-1.04v1.06h-1.06v1.04h-.99v2.05h2.1v-1.03h2.09v-1.04h2.07v1.03h-1.04v1.06h-2.11v1.02h-4.17v-.99h-1.03v-3.14h.99v-2.09h1.05v-2.09h1.04v-1.06h2.11v-1.04h1.04v-1.05h2.09v-1.02h6.28v1h1.03v1.02h-1v2.09c-.38.02-.7.03-1.05.05v2.05h1.02v-.98h1.04v-1.06h1.06v-1.04h1.04v-1.05h2.09v-1.04h1.06v-1.06h3.14"/>
  <path class="cls-1" d="M104.49,41.76v-1.03h1.02v-1.04h1.04v-1.04h1.04v-1.06h1.06v-1.04h1.04v-1.05h2.09v-1.05h2.11v-1.06h2.09v-1.03h2.07v1h1.04v3.14h-1v1.02h-3.12v-2.02h-1.07v.99h-1.06v1.06h-1.04v1.04h-1.04v1.04h-1.05v2.09h-1.04v1.06h-1.05v2.08h2.06v-1h3.16v-1.04h1.04v-1.05h2.09v-1.04h1.04v-1.04h1.06v-1.06h1.04v-1.04h1.04v-1.05h2.09v-1.04h1.05v-1.06h1.06v-1.04h1.04v-1.04h1.04v-1.05h2.09v-1.07h-2.02v-1.04h4.14v-1.04h1.05v-1.04h1.04v-1.06h1.06v-1.04h1.04v-1.02h3.1v2.03h-.99v1.04h-1.04v1.04h-1.03v1.07h3.07v1.04h-5.2v1.04h-1.04v1.04h-1.04v1.04h-1.06v1.06h-1.04v1.04h-1.04v1.04h-1.04v1.04h-1.04v1.06h-1.06v2.09h-1.04v1.04h-1.04v1.04h-1.04v2.11h1.02v-1h2.09v-1.06h2.11l-.02-.02v1.02h-1.02v1.04h-2.09v1.03h-4.22c0-1.73,0-3.47,0-5.21.34,0,.68,0,1.03,0v-1.02h-1.02v1.03h-1.05v1.02h-1.04v1.05h-2.09v1.06h-1.06v1.04h-2.09v1.02h-5.22v-2.04c-.38-.02-.7-.03-1.06-.05v-2.08h-1.07l.02.02Z"/>
  <path class="cls-1" d="M104.47,41.74v1.05h-1.04v1.04h-1.04v1.04h-2.09v1.02h-3.14v-.99h-1.05v-2.07h-1.07v.99h-1.04v1.06h-2.11v1.02h-3.15c0-.33,0-.67,0-1.01.69,0,1.38,0,2.14,0v-1.06h2.09v-1.05h1.04v-1.04h2.09v-1.06h1.06v-1.04h1.04v-1.04h1.04v-1.04h1.04v-1.04h1v-2.07h-3.14v1.02h-2.11v1.06h-1.04v1.04h-1.04v1.04h-1.04v1.04h-1.04v1.06h-1.06v1.04h-1.04v1.04h-1.02v2.1h-1.04v-3.17h-2.12l.02.02v-1.02h1.02v-1.04h1.04v-1.06h2.11v-1.04h1.04v-1.04h1.04v-1.04h2.11v-1.06h2.09v-1.04h3.14v-1.03h2.09v1h1.04v1.03h1.07v-1h1.04v-1.03h2.07v3.07h-1v1.06h-1.06v1.04h-1.04v1.04h-1.04v1.04h-1.06v1.06h-1.04v1.04h-1.04v1.04h-1.03v2.1h1.01v-.99h2.09v-1.06h1.06v-1.06c.73,0,1.42,0,2.12,0,0,0-.02-.02-.02-.02Z"/>
  <path class="cls-1" d="M76.16,41.77c-.7,0-1.39,0-2.09,0,0,0,.02.02.02.02v-1.05h1.02v-1.04h1.04v-1.04h1.04v-1.04h1.06v-1.06h1.04v-1.04h1.04v-1.05h2.09v-1.04h1.04v-1.06h1.06v-1.04h1.03v-1.07h-.98v-1.02h4.15v-2.11h1.04v-1.04h1.04v-1.04h1.04v-1.04h4.16v.97h-1v1.06h-1.04v1.04h-1.02v2.12h2.03v1.04h-4.15v1.04h-1.04v1.04h-1.04v1.04h-1.06v1.06h-1.04v1.04h-1.04v1.04h-1.04v1.06h-1.06v1.04h-1.04v1.04h-1.04v1.04h-1.06v1.06h-1.04v1.04h-1.02v2.09h1.02v-1.02c1.09,0,2.11,0,3.14,0,0,0-.02-.02-.02-.02v1.04h-2.06v1.02h-3.13v-.98h-1.08c0-1.1,0-2.13,0-3.17.34,0,.68,0,1.03,0v-1.02h-1.02v1.03Z"/>
  <path class="cls-1" d="M15.29,43.86h3.15v1.03h5.26v-1.01h4.19v-1.04h2.09v-1.04h2.09v-1.04h2.11v-1.06h1.04v-1.04h1.04v-1.04h1.04v-1.04c.38-.02.7-.03,1.04-.05v-4.19h-1.01v-1.03h-6.31v1.01h-3.14v1.04h-2.09v1.04h-1.04v1.05h-2.11v1.06h-1.04v1.04h-1.04v1.04h-1.05v2.09c-.38.02-.7.03-1.06.05v.99h-2.05v-2.02h1v-1.06h1.04v-1.04h1.04v-1.04h1.04v-1.06h1.06v-1.04h2.09v-1.04h1.04v-1.05h2.11v-1.06h2.09v-1.04h4.19v-1.03h3.14v1.01h2.09v1.04h1.04v1.04h1.02v2.09h-.99v3.14h-1.04v1.04h-1.04v1.06h-1.06v1.04h-1.04v1.05h-2.09v1.04h-2.09v1.04h-2.11v1.06h-3.14v1.03h-9.43v-1.01h-1.07c0-.38,0-.72,0-1.07,0,0-.02.02-.02.02Z"/>
  <path class="cls-1" d="M10.08,21.83h-1.05v-1.04h-1.02v-8.36h1v-2.11h1.04v-1.04h1.04v-1.04h1.04v-1.06h2.11v-1.04h2.09v-1.04h2.09v-1.04h4.19v-1.02h11.51v.97h-.99v1.06h-11.55v1.04h-3.14v1.04h-2.09v1.04h-1.06v1.06h-2.09v1.04h-1.04v1.04h-1.05v2.09c-.38.02-.7.03-1.06.05v2.06h-1.03v4.22h1.03c0,.73,0,1.42,0,2.12,0,0,.02-.02.02-.02Z"/>
  <path class="cls-1" d="M126.5,42.83v-1.05h1.04v-1.04h1.04v-1.06h2.11l-.02-.02v1.02h-1.02v1.04h-1.04v1.08c-.75,0-1.44,0-2.13,0,0,0,.02.02.02.02Z"/>
  <path class="cls-1" d="M70.91,43.88v-1.04h1.05v-1.06c.75,0,1.44,0,2.12,0,0,0-.02-.02-.02-.02,0,.33,0,.65,0,1.02h-1.04v1.08c-.75,0-1.44,0-2.13,0,0,0,.02.02.02.02Z"/>
  <path class="cls-1" d="M85.59,41.74v1.04h-1.05v1.06c-.75,0-1.44,0-2.12,0,0,0,.02.02.02.02,0-.33,0-.65,0-1.02h1.04v-1.08c.75,0,1.44,0,2.13,0,0,0-.02-.02-.02-.02Z"/>
  <path class="cls-1" d="M130.7,39.68v-1.02h1.01v1c-.35,0-.69,0-1.03,0,0,0,.02.02.02.02Z"/>
</svg>