<?xml version="1.0" encoding="UTF-8"?>
<svg id="Layer_1" xmlns="http://www.w3.org/2000/svg" viewBox="0 0 1228.28 269.59">
  <defs>
    <style>
      .cls-1 {
        isolation: isolate;
      }
    </style>
  </defs>
  <g id="Layer_1-2" data-name="Layer_1">
    <g>
      <path d="M373.15,195.41c0-15.15,12.81-23.94,12.81-34.22s-20.1-20.66-45.91-19.92l-19.17.56c-9.35.19-16.08,3.65-18.89,9.72l-22.16,47.4c-4.21,9.16-.19,10.75,4.21,10.75,24.5,0,41.33-4.21,50.11-4.39,6.92-.19,6.73,7.85,0,7.85-21.41-.19-42.07-2.71-68.25-2.71s-43.2,1.5-51.24,1.5-4.39-7.85.37-7.85c8.41,0,22.72,5.33,36.74,5.33s9.35-5.52,11.87-10.94l53.76-113.23c4.39-9.16.19-10.66-4.21-10.66-17.39,0-27.58,4.21-35.53,4.39-6.92.19-6.73-7.85,0-7.85,16.83.19,33.1,2.9,53.76,2.9s38.43-.56,46.47-.56c35.72,0,56.19,9.72,56.19,26.55s-21.22,30.57-58.53,37.49c-6.36,1.12-6.54,5.33-.75,7.85,14.31,6.08,23.56,13.37,23.56,22.91s-13,26.55-13,34.41,7.29,11.31,12.25,11.31c15.71,0,28.7-15.15,36.37-24.87,5.14-6.36,11.87,0,7.11,5.89-5.52,6.92-22.91,20.29-43.38,20.29s-24.31-6.73-24.31-20.1h0l-.28.19ZM374.93,136.51c29.08-5.33,43.2-20.1,43.2-38.61s-11.5-22.91-41.14-22.91-23.56.56-33.47,1.31c-6.73.56-7.48,4.21-9.91,9.54l-21.41,45.35c-2.9,6.08.37,9.72,8.79,9.54l19.17-.56c13-.37,25.81-1.96,34.78-3.65h0Z"/>
      <path d="M506.76,63.86c32.44,0,61.52,29.73,61.52,74.99s-27.68,79.29-62.64,79.29-63.02-33.19-63.02-75.92,24.12-78.35,64.14-78.35h0ZM502.93,72.27c-21.22,0-40.58,21.32-40.58,63.86s19.35,73.4,46.28,73.4,40.2-20.48,40.2-64.33-21.04-72.93-45.91-72.93h0Z"/>
      <path d="M509.28,246.65c1.96-.28,3.55,1.03,3.83,2.9.19,1.78-1.03,3.55-2.9,3.83s-3.55-1.22-3.83-2.9,1.03-3.55,2.9-3.83ZM513.49,262.82c1.96-.28,3.55,1.03,3.83,2.9.19,1.78-1.03,3.55-2.9,3.83s-3.55-1.22-3.83-2.9,1.03-3.55,2.9-3.83ZM521.25,233.18c1.96-.28,3.55,1.03,3.83,2.9.19,1.78-1.03,3.55-2.9,3.83s-3.55-1.22-3.83-2.9,1.03-3.55,2.9-3.83ZM531.07,262.36c1.96-.28,3.55,1.03,3.83,2.9.19,1.78-1.03,3.55-2.9,3.83s-3.55-1.22-3.83-2.9,1.03-3.55,2.9-3.83ZM536.59,224.77c1.96-.28,3.55,1.03,3.83,2.9.19,1.78-1.03,3.55-2.9,3.83s-3.55-1.22-3.83-2.9,1.03-3.55,2.9-3.83ZM547.06,257.21c1.96-.28,3.55,1.03,3.83,2.9.19,1.78-1.03,3.55-2.9,3.83s-3.55-1.22-3.83-2.9,1.03-3.55,2.9-3.83ZM552.29,217.66c1.96-.28,3.55,1.03,3.83,2.9.19,1.78-1.03,3.55-2.9,3.83s-3.55-1.22-3.83-2.9,1.03-3.55,2.9-3.83ZM560.43,246.55c1.96-.28,3.55,1.03,3.83,2.9.19,1.78-1.03,3.55-2.9,3.83s-3.55-1.22-3.83-2.9,1.03-3.55,2.9-3.83ZM566.88,210.93c1.4-.19,2.8.84,2.99,2.24.19,1.22-.84,2.71-2.24,2.9s-2.71-.93-2.8-2.15c-.19-1.4.75-2.71,2.15-2.9l-.09-.09ZM571.37,233.09c1.96-.28,3.55,1.03,3.83,2.9.19,1.78-1.03,3.55-2.9,3.83s-3.55-1.22-3.83-2.9,1.03-3.55,2.9-3.83ZM580.16,218.13c1.96-.28,3.55,1.03,3.83,2.9.19,1.78-1.03,3.55-2.9,3.83s-3.55-1.22-3.83-2.9,1.03-3.55,2.9-3.83h0ZM587.82,202.33c1.96-.28,3.55,1.03,3.83,2.9.19,1.78-1.03,3.55-2.9,3.83s-3.55-1.22-3.83-2.9,1.03-3.55,2.9-3.83h0ZM595.49,186.53c1.96-.28,3.55,1.03,3.83,2.9.19,1.78-1.03,3.55-2.9,3.83s-3.55-1.22-3.83-2.9,1.03-3.55,2.9-3.83ZM592.87,109.77c1.96-.28,3.55,1.03,3.83,2.9.19,1.78-1.03,3.55-2.9,3.83s-3.55-1.22-3.83-2.9,1.03-3.55,2.9-3.83ZM601.94,170.91c1.96-.28,3.55,1.03,3.83,2.9.19,1.78-1.03,3.55-2.9,3.83s-3.55-1.22-3.83-2.9,1.03-3.55,2.9-3.83h0ZM595.68,92.84c1.96-.28,3.55,1.03,3.83,2.9.19,1.78-1.03,3.55-2.9,3.83s-3.55-1.22-3.83-2.9,1.03-3.55,2.9-3.83ZM604,123.88c1.96-.28,3.55,1.03,3.83,2.9.19,1.78-1.03,3.55-2.9,3.83s-3.55-1.22-3.83-2.9,1.03-3.55,2.9-3.83ZM608.86,155.39c1.96-.28,3.55,1.03,3.83,2.9.19,1.78-1.03,3.55-2.9,3.83s-3.55-1.22-3.83-2.9,1.03-3.55,2.9-3.83ZM613.91,181.2c1.12-.19,2.24.65,2.43,1.87.19,1.03-.65,2.24-1.87,2.43s-2.24-.75-2.43-1.87.65-2.24,1.87-2.43ZM606.33,77.7c1.96-.28,3.55,1.03,3.83,2.9.19,1.78-1.03,3.55-2.9,3.83s-3.55-1.22-3.83-2.9,1.03-3.55,2.9-3.83ZM615.5,139.78c1.96-.28,3.55,1.03,3.83,2.9.19,1.78-1.03,3.55-2.9,3.83s-3.55-1.22-3.83-2.9,1.03-3.55,2.9-3.83h0ZM624.94,126.5c.19,1.78-1.03,3.55-2.9,3.83s-3.55-1.22-3.83-2.9,1.03-3.55,2.9-3.83,3.55,1.03,3.83,2.9ZM628.21,175.68c1.12-.19,2.24.65,2.43,1.87.19,1.03-.65,2.24-1.87,2.43s-2.24-.75-2.43-1.87.65-2.24,1.87-2.43ZM620.36,66.94c1.96-.28,3.55,1.03,3.83,2.9.19,1.78-1.03,3.55-2.9,3.83s-3.55-1.22-3.83-2.9,1.03-3.55,2.9-3.83ZM627.65,107.71c1.96-.28,3.55,1.03,3.83,2.9.19,1.78-1.03,3.55-2.9,3.83s-3.55-1.22-3.83-2.9,1.03-3.55,2.9-3.83ZM639.06,165.59c1.12-.19,2.24.65,2.43,1.87.19,1.03-.65,2.24-1.87,2.43s-2.24-.75-2.43-1.87.65-2.24,1.87-2.43ZM635.41,122.95c1.4-.19,2.8.84,2.99,2.24.19,1.22-.84,2.71-2.24,2.9s-2.71-.93-2.8-2.15c-.19-1.31.75-2.71,2.15-2.9l-.09-.09ZM634.57,92.19c1.96-.28,3.55,1.03,3.83,2.9.19,1.78-1.03,3.55-2.9,3.83s-3.55-1.22-3.83-2.9,1.03-3.55,2.9-3.83ZM636.07,59.09c1.96-.28,3.55,1.03,3.83,2.9.19,1.78-1.03,3.55-2.9,3.83s-3.55-1.22-3.83-2.9,1.03-3.55,2.9-3.83ZM645.51,114.44c1.12-.19,2.24.65,2.43,1.87.19,1.03-.65,2.24-1.87,2.43s-2.24-.75-2.43-1.87.65-2.24,1.87-2.43ZM643.83,77.6c1.96-.28,3.55,1.03,3.83,2.9.19,1.78-1.03,3.55-2.9,3.83s-3.55-1.22-3.83-2.9,1.03-3.55,2.9-3.83ZM652.99,62.74c1.96-.28,3.55,1.03,3.83,2.9.19,1.78-1.03,3.55-2.9,3.83s-3.55-1.22-3.83-2.9,1.03-3.55,2.9-3.83ZM650.93,53.67c.75-.09,1.4.37,1.5,1.12,0,.65-.37,1.31-1.22,1.4s-1.31-.37-1.4-1.12.28-1.4,1.03-1.5h0l.09.09ZM667.3,52.45c1.96-.28,3.55,1.03,3.83,2.9.19,1.78-1.03,3.55-2.9,3.83s-3.55-1.22-3.83-2.9,1.03-3.55,2.9-3.83Z"/>
      <path d="M786.6,68.63c-5.14,7.11-13.28,17.58-20.38,25.15-6.17-2.24-18.23-6.92-29.83-12.25v41.89h33.29c-1.87,9.44-3.09,14.49-4.49,22.91-3.65-2.06-7.57-2.62-11.03-2.62h-17.76v55.54c2.24.19,6.92.19,9.35.19,16.92,0,29.83-6.17,37.96-12.44l1.68,2.43c-10.19,14.12-25.15,27.96-56.85,27.96s-70.12-24.68-70.12-68.81,23.47-58.25,40.86-67.04l2.43,1.87c-12.62,11.69-18.98,33.1-18.98,50.3s3.65,32.72,11.22,43.48c6.54-4.67,8.41-11.41,8.41-20.66v-60.68c17.58-13.46,28.98-23.47,41.05-34.13,17.39,6.92,25.15,9.82,33.47,9.82s3.93-1.22,6.54-5.14l3.09,2.24h.09ZM732.65,79.66l-2.24-1.03-6.17,5.33v77.04s-14.96,9.35-28.42,18.79c8.13,10.19,20.2,16.55,36.74,18.98v-119.12h.09Z"/>
      <path d="M1013.43,54.32c-7.85,5.98-13.74,15.24-19.82,25.71-8.23,14.59-12.34,35.25-17.2,53.48-4.77,17.67-9.63,34.69-15.15,51.33-3.65,11.03-5.42,18.79-11.59,27.21-5.24,7.2-15.43,19.45-22.16,22.72-3.37,1.5-6.83,2.06-10.85,2.06s-8.79-.93-13-2.06c-6.36-2.06-9.63-3.27-13.37-12.53-1.59-3.83-3.55-9.54-3.55-14.31s1.78-7.76,2.62-11.03c3.37-12.81,4.96-16.08,14.4-16.08s4.39,0,4.39,3.27-.56,6.92-.56,10.19.19,2.06.19,3.27c0,11.03-11.22,13.18-11.22,21.79s.19.93.19,1.22c2.06,7.2,8.41,7.76,13.37,7.76h3.55c5.42,0,8.04-1.22,12.81-5.98,8.41-8.7,15.99-21.79,20.76-36.46,9.82-30.2,33.38-102.1,48.81-122.48,6.36-8.32,16.83-22.44,24.78-22.44s4.21.28,4.21,3.55-10.38,9.26-11.59,9.82h0ZM1219.96,59.37c-7.01,10.47-31.98,11.03-48.34,11.97-21.04-1.5-36-4.21-52.36-8.98-11.97-3.27-23.19-7.2-35.16-11.31-14.21-5.05-31.98-10.75-46-12.25-5.61-.56-11.22-.93-16.64-.93-8.23,0-16.55.28-24.78,1.5-3.18,0-16.36,4.21-18.79,6.54-1.22,1.5-2.06,12.53-2.62,15.52-4.21,24.5-15.8,52.83-28.98,65.45-6.54,6.26-15.43,10.47-23,10.47s-17.58-6.54-17.58-23.94,4.77-27.77,11.22-35.81c8.98-11.03,25.24-23.94,36-29.26,2.43-.93,13.18-5.05,14.4-7.2.19-.28.37-.28.37-1.5l-.37-2.43c-1.22-6.92-5.24-6.54-8.6-7.48h-4.58c-11.78,0-22.81,8.32-31.42,21.22-4.02,5.7-6.36,8.7-8.98,17.3-.56,1.5-1.03,7.76-2.24,7.76s-2.06-1.5-2.06-3.55,2.99-10.47,3.37-11.69c9.35-23,28.24-39.74,44.6-39.74s10.38,1.22,13.74,5.05c1.78,2.06,4.58,11.31,5.61,11.31s3.37-.93,4.58-1.78l9.82-2.71c7.57-2.06,14.77-3.27,22.25-3.27s12.44.28,18.61.56c14.02.28,27.58,2.99,41.05,7.48,11.22,3.83,21.97,9.26,33.19,13.46,19.63,7.48,48.81,12.25,69.19,12.25s19.45,0,28.42-2.71c7.01-2.43,12.62-2.06,17.02-13.46,1.96-4.77,3.18-10.75,3.18-16.46s-2.24-13.74-5.05-18.51c-2.8-5.7-10.38-5.98-14.4-5.98-5.8,0-11.78,1.22-17.95,3.27-9.82,3.55-18.79,9.82-28.14,14.96-1.59.93-2.99,1.5-4.21,1.5s-2.8-2.06-2.24-2.43c1.03-3.55,13.84-9.54,16.36-11.31,11.78-6.26,22.44-12.25,34.59-12.25h2.62c6.17,0,14.59.56,18.23,9.54,1.59,3.27,2.43,7.48,3.37,11.31.75,2.99,1.03,5.98,1.03,9.26,0,11.03-3.55,21.79-8.41,28.98h0l.09.28ZM966.21,50.49c-2.24,0-4.96,1.78-7.2,2.71-7.2,3.27-15.61,7.76-22.44,13.46-6.54,5.05-12.44,11.69-17.58,20.29-3.37,5.05-4.96,11.31-4.96,18.79,0,13.18,5.61,21.22,13.18,21.22,12.81,0,23.84-13.46,30.76-31.04,2.06-5.7,3.83-11.31,5.8-17.02,1.78-4.49,4.39-20.01,4.39-25.06s-.75-3.27-1.96-3.27h0v-.09Z"/>
      <path d="M1126.84,178.67c0-37.77-118.56-22.16-118.56-67.23s27.96-34.22,61.62-34.22,19.82,1.4,31.04,4.21c3.83.84,8.79,2.62,12.62,2.62s5.8-1.4,5.42-5.8h1.96l11.97,41.61h-1.96l-1.59-3.83c-10.57-27.77-32.35-36.84-59.56-36.84s-49.74,6.17-49.74,22.44c0,33.85,118.56,20.94,118.56,67.23s-42.35,40.02-69.94,40.02-24.4-2.62-35.81-6.64c-3.37-1.03-7.85-2.8-11.59-2.8s-7.57,2.24-6.45,9.63h-1.96l-12.44-43.57h1.96l1.78,4.21c10.85,24.03,37.03,37.21,64.61,37.21s57.97-5.98,57.97-28.24h.09Z"/>
      <g class="cls-1">
        <g class="cls-1">
          <path d="M790.46,186.09c0-7.5,3.07-16.02,7.84-25.57,6.48-11.93,16.7-26.59,27.95-38.18h-.34c-9.54,8.52-17.38,17.05-23.86,24.54h-4.09c11.93-14.66,30.34-32.38,48.07-45.34,17.73-12.95,29.32-17.05,38.52-17.05,6.48,0,12.27,3.41,12.27,12.61,0,12.27-8.18,23.52-16.36,23.52-4.09,0-6.14-2.39-6.14-5.11,0-10.57,18.07-9.55,18.07-20.45,0-4.43-2.73-7.5-7.84-7.5-10.91,0-21.82,10.23-36.13,26.59-16.02,18.75-26.93,33.07-37.16,51.13-4.43,7.5-9.2,17.04-9.2,24.54,0,9.2,6.82,14.32,18.07,14.32,24.54,0,51.13-26.59,76.36-57.27h4.09c-29.32,35.79-54.54,61.7-83.18,61.7-13.64,0-26.93-7.16-26.93-22.5Z"/>
        </g>
      </g>
    </g>
    <g id="bE3LcV">
      <g>
        <path d="M22.72,235.71H3.18v-3.27H0v-9.72h3.09v-3.18h42.17v3.18h19.54v3.18h16.27v-3.18h3.27v-3.27h6.45v-3.27h3.27v-3.27h3.27v-3.27h3.27v-3.27h3.27v-3.27h3.27v-6.54h3.27v-3.27h3.27v-3.27h3.27v-3.27h3.27v-6.45h3.27v-3.27h3.27v-6.45h3.27v-3.27h3.27v-6.54h3.27v-3.27h3.27v-6.45h3.27v-3.27h3.27v-6.54h3.27v-6.45h3.27v-3.27h3.27v-6.45h3.27v-3.27h3.27v-6.54h3.27v-3.27h3.27v-6.54h3.27v-3.27h3.27v-6.45h3.27v-3.27h3.27v-3.27h3.27v-6.54h3.27v-3.27h3.27v-3.27h3.27v-3.27h3.27v-3.27h3.27v-3.27h3.27v-3.27h3.27v-3.27h3.27v-3.27h3.27v-3.27h3.27v-3.27h3.27v-3.27h6.54v-3.27h6.45v-3.27h-9.63v-3.18h-32.54v3.09h-16.27v3.27h-13v3.27h-9.72v3.27h-6.54v3.27h-9.72v3.27h-6.54v3.27h-3.27v3.27h-6.45v3.27h-6.54v3.27h-3.27v3.27h-3.27v3.27h-6.45v3.27h-3.27v3.27h-3.27v3.27h-3.27v3.27h-3.27v3.27h-3.27v3.27h-3.27v6.45h-3.27v3.27h-3.27v6.54h-3.27v6.45h-3.27v6.54h-3.27v19.45h-3.18v9.72h3.18v9.72h3.27v6.54h6.54v3.18h25.99v-3.09h6.54v-3.27h3.27v-3.27h6.45v-3.27h3.27v-6.45h3.27v-3.27h3.27v-6.54h3.27v-6.45h3.27v-13h3.27v-19.45h6.45v19.35h-3.18v13h-3.27v6.54h-3.27v6.45h-3.27v6.54h-3.27v3.27h-3.27v3.27h-3.27v3.27h-3.27v3.27h-3.27v3.27h-6.45v3.27h-6.54v3.27h-29.17v-3.18h-6.45v-3.27h-3.27v-3.27h-3.27v-6.45h-3.27v-6.45h-3.18v-29.26h3.18v-9.72h3.27v-6.54h3.27v-6.45h3.27v-3.27h3.27v-3.27h3.27v-6.45h3.27v-3.27h3.27v-3.27h3.27v-3.27h3.27v-3.27h3.27v-3.27h3.27v-3.27h6.54v-3.27h3.27v-3.27h3.27v-3.27h6.45v-3.27h3.27v-3.27h6.54v-3.27h6.54v-3.27h6.45v-3.27h6.45v-3.27h9.72v-3.27h9.72v-3.27h13v-3.27h19.45v-3.18h32.44v3.18h16.27v3.18h6.54v-3.18h9.72v-3.27h9.72v-3.18h6.45v3.18h-3.09v3.27h-9.72v3.27h-6.45v6.45h3.18v3.27h3.27v3.27h3.27v6.54h3.27v6.45h3.18v32.44h-3.18v6.54h-3.27v6.45h-3.27v3.27h-3.27v3.27h-3.27v3.27h-3.27v3.27h-3.27v3.27h-6.45v3.27h-6.54v3.27h-6.45v3.18h-25.99v-3.09h-6.45v-3.27h-3.18v-16.18h3.09v-3.18h13v3.18h3.27v3.18h-3.18v12.9h16.18v-3.09h6.45v-3.27h3.27v-3.27h3.27v-6.45h3.27v-3.27h3.27v-6.45h3.27v-6.54h3.27v-13h3.18v-22.72h-3.18v-9.72h-3.27v-3.27h-3.27v-3.18h-3.27v3.09h-3.27v3.27h-3.27v3.27h-6.45v3.27h-3.27v3.27h-3.27v6.45h-3.27v3.27h-3.27v3.27h-3.27v3.27h-3.27v6.45h-3.27v3.27h-3.27v6.45h-3.27v3.27h-3.27v6.45h-3.27v6.45h-3.27v3.27h-3.27v6.45h-3.27v6.54h-3.27v3.27h-3.27v6.45h-3.27v6.54h-3.27v3.27h-3.27v6.54h-3.27v6.45h-3.27v3.27h-3.27v3.27h-3.27v6.45h-3.27v3.27h-3.27v6.45h-3.27v3.27h-3.27v3.27h-3.27v3.27h-3.27v3.27h-3.27v3.27h-3.27v3.27h-3.27v3.27h-3.27v3.27h-3.27v3.27h-3.27v3.27h-3.27v3.27h-6.45v3.27h-3.27v3.27h-6.54v3.27h-6.45v3.27h25.9v3.18h19.45v-3.18h25.99v-3.27h9.72v-3.27h9.72v-3.27h6.45v-3.27h6.45v-3.27h6.54v-3.27h3.27v-3.27h6.54v-3.27h3.27v-3.27h3.27v-3.27h3.27v-3.27h3.27v-3.27h3.27v-3.27h3.27v-3.27h3.27v-3.27h3.27v-3.27h3.27v-6.54h3.27v-3.27h3.27v-3.27h3.27v-6.45h6.45v6.36h-3.18v3.27h-3.27v6.54h-3.27v3.27h-3.27v3.27h-3.27v6.45h-3.27v3.27h-3.27v3.27h-3.27v3.27h-3.27v3.27h-3.27v3.27h-3.27v3.27h-3.27v3.27h-6.45v3.27h-3.27v3.27h-3.27v3.27h-6.54v3.27h-6.45v3.27h-6.45v3.27h-9.72v3.27h-13v3.27h-32.54"/>
        <path d="M87.61,235.62v-3.18h-25.99v3.18h-29.17"/>
      </g>
    </g>
  </g>
</svg>