<?xml version="1.0" encoding="UTF-8"?>
<svg id="Layer_1" xmlns="http://www.w3.org/2000/svg" viewBox="0 0 548.77 727.48">
  <defs>
    <style>
      .cls-1 {
        fill: none;
        stroke: #fff;
        stroke-miterlimit: 10;
      }
    </style>
  </defs>
  <g id="Evifm8.tif">
    <g>
      <path class="cls-1" d="M107.68,727.1c-7.45-30.45-21.26-58.16-37.01-84.98-2.18-3.72-3.11-6.11-.17-10.32,5.79-8.27.32-17.78-9.78-18.56-1.09-.08-2.86-2.47-2.79-3.66.13-1.76,1.5-3.54,2.63-5.11,3.71-5.08,3.82-10.42.18-15.22-7.66-10.06-7.27-21.05-2.76-31.55,5.24-12.2,12.61-23.46,18.21-35.54,3.17-6.84,4.91-14.39,6.74-21.77,1.08-4.35-.41-8.35-4.86-10.41-4.85-2.25-8.78.13-11.6,3.58-3.81,4.67-6.92,9.91-10.56,15.23-5.03-2.46-4.89-7.33-3.6-11.04,1.66-4.77,4.48-9.47,7.88-13.19,6.62-7.25,12.05-14.98,14.24-24.66,1.77-7.8-1.3-14.35-8.26-18.55-5.54-3.35-6.87-8.6-4.55-14.21,2.33-5.61,5.53-10.86,8.61-16.12,2.76-4.71,6.03-9.12,8.79-13.84,4.86-8.35,6.37-17.08,5.51-26.99-2.68-30.43-4.56-60.95-6.24-91.46-.55-9.96.32-20.03.79-30.04.12-2.51,1.29-4.96,2.1-7.92,1.37.59,2.06.98,2.8,1.21,1.97.58,4.99,2.1,5.72,1.38,1.46-1.44,2.02-4.11,2.29-6.35.35-3.07.09-6.22.09-11.17,5.33,5.24,8.61,11.71,14.82,7.64,3.32-2.18,6.6-7.04,6.7-10.78.09-3.4-4.11-6.93-6.43-10.41-.74.22-1.47.45-2.21.68,1.56-5.63,2.8-11.38,4.73-16.9,13.47-38.27,35.52-70.46,67.88-95.34,5.18-3.98,9.59-5.72,16.5-2.15,15.61,8.06,32.19,9.61,48.7,2.1,9.29-4.23,18.61-8.55,27.44-13.64,5.81-3.35,9.45-.54,12.38,3.18,5.95,7.52,10.95,15.82,16.88,23.36,3.67,4.65,8.48,8.36,12.54,12.71,5.93,6.34,11.8,12.74,17.38,19.35,5.62,6.67,10.91,13.64,16.29,20.51,5.41,6.89,9.29,14.49,8.63,23.46-.26,3.54-2.06,6.97-3.18,10.44-.81-.11-1.64-.21-2.46-.3-.55-2.14-1.25-4.25-1.64-6.42-1.6-8.56-5.44-15.75-13.07-20.31-4.13-2.46-8.79-4.92-13.42-1.18-4.61,3.74-6.14,8.93-5.27,14.74.54,3.6.95,7.31,2.21,10.67.7,1.84,3.06,3.05,4.68,4.53.76-1.97,2.37-4.04,2.14-5.89-.58-4.7-2.58-9.28-2.86-13.97-.3-4.94,2.58-7.02,7.75-5.44,9.16,2.81,12.29,13.84,6.83,21.57-2.46,3.49-2.84,8.53-3.85,12.95-.72,3.16-.96,6.43-1.41,9.65-.64-.35-1.3-.71-1.94-1.05-2,2.56-4.68,4.84-5.87,7.73-6.92,16.75-32.4,25.35-47.36,15.39-2.64-1.76-4.11-5.38-5.86-8.31-1.92-3.2-3.53-6.58-5.28-9.87-1,.2-2.01.38-3.01.58,0,2.44-.68,5.15.12,7.3,4.57,12.43,14.14,18.87,27.59,19.29,15.87.5,28.51-5.23,37.9-18.7-.49,2.9-1.26,5.8-1.39,8.72-.45,9.95-1.64,20-.71,29.83.93,9.81,8.19,16.19,16.66,20.55,3.57,1.84,6.07,3.41,6.6,7.92.28,2.36,2.69,6.04,4.6,6.35,5.06.83,8.75,3.56,12.94,5.97,6.5,3.74,15.22-.26,16.86-6.96,1.31-5.34,4.6-6.64,9.33-3.7,5.91,3.69,9,10.69,7.13,16.12-3.44,9.99-8.72,13.97-16.87,13.76-2.47-.07-5.32,1.54-7.42,3.12-3.9,2.94-7.54,4.83-12.63,2.8-5.11-2.03-6.94,2.05-8.66,5.68-1.54,3.27-2.79,6.68-4.48,9.87-3.55,6.68-2.79,14.91,2.71,20.44,4.03,4.07,1.93,5.86-2.15,7.68-2.72-2.53-5.45-5.07-8.8-8.19-.87,2.55-1.7,3.91-1.77,5.32-.81,15.33-10.72,24.84-21.63,33.61-23.09,18.58-50.23,27.93-78.75,33.79-7.95,1.64-16.2,1.84-24.68,3.68,3.63.59,7.24,1.43,10.89,1.72,25.37,2.03,48.29-6.66,70.44-17.3,21.93-10.53,42.57-23.42,60.72-39.78,8.75-7.89,16.74-16.62,24.93-25.12,1.7-1.76,2.73-4.15,4.09-6.25-.35-.59-.71-1.19-1.06-1.79-4.8,1.51-9.61,2.97-14.37,4.56-6.52,2.17-8.53.96-10.41-7.29,5.27-1.09,10.85-1.46,15.73-3.52,4.05-1.72,7.75-4.99,10.74-8.36,7.23-8.18,13.6-17.13,20.97-25.16,4.05-4.41,9.33-7.75,14.28-11.25,3.18-2.26,6.99-3.66,10.1-5.99,2.93-2.19,2.92-5.11.32-7.92-2.43-2.64-4.61-2.63-7.27-.17-1.67,1.55-3.89,2.51-6.6,4.18-.11-1.8-.49-2.78-.16-3.32,8.08-13.27,18.74-24.16,31.85-32.36,6.41-4.02,12.67-.04,12.94,7.39.6,15.96-2.19,31.19-8.74,45.89-1.75,3.94-1.62,8.81-1.85,13.27-.21,4.07-.24,8.27.55,12.24.63,3.14,2.52,6.05,4.03,8.98.46.91,1.59,1.44,2.22,2.3,8.69,11.55,23.97,14.27,37.09,6.55,12.5-7.35,19.78-19.04,25.33-31.76,3.3-7.54,5.16-15.72,7.38-23.68.95-3.41,1.41-5.89,6.27-5.29,5.4.67,9.01-3.48,9.22-8.25.18-4.36-1.79-8.97-3.61-13.12-.34-.79-4.47.08-5.76.14-.75-16.74-1.52-34.08-2.34-52.08,20.81-12.32,22.72-51.53.45-71.5-7.69-6.89-14.86-14.52-26.17-14.69-2.1-.03-4.9.47-6.1,1.85-.8.93,0,4.49,1.25,5.63,1.29,1.18,3.94,1.05,6.02,1.18,2.89.18,6.23-.87,8.62.25,18.75,8.74,30.02,36.05,22.71,55.34-1.75,4.61-5.41,8.51-9.15,14.19-4.28-7.31-7.74-12.74-10.6-18.46-.55-1.1,1.27-3.3,1.76-5.07.51-1.85,1.6-4.92.92-5.45-1.6-1.22-4.38-2.09-6.25-1.58-6.82,1.84-10.2,14.56-4.39,19.88,7.27,6.67,6.77,14.43,6.9,22.77.07,4.41,1.83,8.77,2.44,13.19,1.08,7.69,2.54,15.41,2.64,23.13.35,24.28-1.71,48.25-15.66,69.2-5.49,8.26-11.69,16.61-22.57,18.47-12.57,2.14-18.38-4.39-20.91-17.04-3.89-19.52,3.38-37.48,4.99-56.18.22-2.61.55-5.23.88-7.82.46-3.64,1.27-6.34,6.02-7.04,6.1-.89,6.58-6.33,6.48-11.28-.12-5.49-2.65-10.14-8.05-11.41-2.05-.49-5.83,2.01-7.23,4.18-2.46,3.82-4.89,4.79-9.17,3.52-5.27-1.56-9.18,1.58-13.77,4-16.67,8.84-25.1,25.71-38.58,37.52-2.42,2.13-6.31,2.59-9.53,3.81-.95-3.11-2.65-6.22-2.69-9.35-.12-8.05-5.51-14.77-14.52-17-10.92-2.7-10.45-2.73-11.27-14.17-.28-3.78-3.65-7.33-5.14-10.11,4.18-2.01,9.97-3.61,14.18-7.12,5.12-4.29,4.03-8.68-2.47-15.58,1.67-.39,3-1.06,4.26-.96,22.9,2.13,36.2-11.15,33.31-33.51-.72-5.63-1.93-11.2-2.89-16.81-.66-3.85-3.89-7.77,1.01-11.54.57-.43-2.18-5.71-3.92-8.42-1.46-2.28-4.32-3.77-5.45-6.13-8.94-18.7-20.37-34.94-38.88-45.74-4.09-2.39-6.16-8.74-8.28-13.65-.55-1.27,1.83-5.23,3.59-5.84,16.08-5.65,24.58-17.17,25.91-33.66,1.42-17.63-6.12-30.92-21.8-39.36-15.98-8.6-32.94-9.58-50.38-6.11-5.14,1.02-10.21,2.44-15.33,3.53-1.64.35-3.47.7-5.03.3-15.6-3.82-30.55,1.25-37.13,15.4-4.51,9.68-11.2,16.19-19.03,22.53-5.73,4.63-10.79,10.1-16.39,15.43-2.97-6.92-7.67-11.38-15.65-10.25-6.57.93-9.5,5.89-11.17,11.55-2.04,6.91,3.05,10.29,8.42,14.35-7.44,5.02-13.88,11.05-22.97,11.62-2.15.13-5.35-1.9-6.58-3.86-9.37-14.97-26.44-21.78-44.07-16.88-21.3,5.91-34.29,20.95-43.11,40.2-12.51,27.32-11.97,56.07-8.75,85.04.35,3.19,1.72,6.26,2.6,9.33-14.15,7.72-15.05,23.08-1.66,32.93-6.74,24.8-3.18,49.9-1.68,74.88,1.1,18.51,4.52,36.95,4.8,55.44.17,11.26-2.27,22.9-8.65,33.1-10.08,16.14-19.93,32.4-29.71,48.72-9.72,16.24-10.91,33.31-4.39,51.01,2.71,7.35,1.45,11.23-4.97,13.21-2,.62-5.23,0-6.86-1.31-16.31-13.18-22.92-37.44-7.91-58.77.96-1.35,3.77-1.35,4.85-2.69,2.13-2.63,4.06-5.61,5.14-8.76.32-.92-2.39-3.85-4.05-4.18s-4.38.95-5.48,2.39c-3.13,4.08-5.89,8.48-8.4,12.97-10.14,18.25-11.02,47.61,12.96,65.99-5.32,9.86-4.82,11.8,3.99,17.59-3.06,7.02-6.7,13.69-8.91,20.81-3.99,12.88-1.01,24.6,7.94,34.77,8.51,9.65,17.03,19.31,25.9,29.36-5.7,4.82-6.08,10.95-3.26,16.66,1.5,3.01,5.43,6.49,8.49,6.71,6.53.49,10.08,3.79,12.48,8.98,6.61,14.26,13.06,28.6,19.49,42.95,4.99,11.16,9.85,22.37,14.78,33.57h6.57l.03.12ZM160.1,96c-6.69-.91-11.44,2.84-8.66,6.5,4.61,6.09,1.16,9.7-2.46,13.46-23.51,24.41-39.81,52.98-49.94,85.22-1.09,3.45-2.92,6.88-5.16,9.72-1.96,2.47-5.31,3.2-6.79-.63-2.25-5.82-4.28-11.78-5.62-17.86-7.2-32.9-1.66-64.17,15.4-92.69,8.32-13.9,21.22-24.54,37.92-28.39,16.19-3.73,29.43,9.14,25.31,24.68h.01ZM297.8,15.2c18.92-10.66,38.08-10.39,56.91-3.23,12.76,4.84,21.01,14.74,22.27,29.11.93,10.5-2.43,19.18-9.05,27.7-7.48,9.61-18.2,2.3-26.17,7.1-.29.17-1.2-.45-1.68-.87-11.52-9.75-23.73-18.38-38.83-22.61,5.89-13.27,5.72-25.54-3.46-37.22h.01ZM368.13,117.81c.63-.37,1.25-.74,1.88-1.12,2.9,2.49,6.19,4.65,8.63,7.54,17.17,20.36,26.54,43.97,28.22,70.52.22,3.58-.71,7.39-1.73,10.9-3.65,12.5-24.19,16.19-30.18,10.31-4.19-4.12-8-6.5-13.8-3.43-.58.3-3.68-2.07-3.53-2.78,1.39-6.71,3.25-13.31,4.95-19.9,9.62,2.3,14.2.85,16.08-4.65,2.44-7.17-2.9-9.51-8.7-12.09,5.95-18.6,4.89-37.04-1.81-55.27h-.01ZM45.05,505.01c3.14,4.7,6,7.42,6.95,10.69,3.35,11.65,4.24,23.45,1.29,35.49-2.46,9.99-4.11,20.18-6.25,30.98-3.92.59-5.31,4.33-3.73,9.51.88,2.9,2.58,5.54,3.5,8.43.6,1.89.5,4.02.72,6.04-11.55-8.64-19.26-19.54-24.49-31.73-4.91-11.45-3.1-31.34,12.78-39.31,2.08-1.04,4.03-6.56,3.07-8.65-4.06-8.84,3.27-13.1,6.18-21.44h-.01ZM265.97,82.44c.21-.14-1.01.72-2.23,1.6-18.37,13.1-38.81,16.21-60.54,12.04-3.01-.58-5.56-3.58-8.33-5.47,2.63-3.02,4.72-6.98,8-8.9,10.52-6.2,21.23-12.26,32.44-17.04,4.28-1.82,11.42-1.92,14.95.54,6.04,4.2,10.26,11,15.72,17.26v-.03ZM227.85,59.15c-.16-.29-.32-.59-.47-.88,5.51-4.58,10.91-9.27,16.52-13.71,12.47-9.87,24.6-20.39,40.26-25.01,2.6-.76,6.83-.35,8.63,1.31,6.53,6.03,6.78,21.1,1.02,27.93-.75.89-2.18,1.81-3.25,1.76-6.52-.35-13.44.22-19.42-1.85-6.7-2.31-12.76-2.48-18.97-.03-8.2,3.24-16.21,6.96-24.31,10.48h-.01ZM42,490.17c-.67-.51-1.33-1.01-2-1.52-2.08-15.73,1.24-30.34,10.54-43.43,2.86-4.03,8.05-3.83,10.98.58,2.14,3.23,4.05,7.75,3.59,11.37-1.29,10.1-5.73,19.1-13.49,26.03-2.94,2.63-6.4,4.66-9.62,6.97h0ZM327.19,76.69c-.07.72-.13,1.44-.2,2.17-1.67.88-3.44,2.65-4.98,2.47-4.41-.53-7.79-.03-9.49,4.7-.26.74-1.56,1.51-2.43,1.58-10.29.8-19.42-2.48-28.61-7.58,5.09-6,9.51-11.38,14.18-16.56.8-.89,2.96-1.65,3.85-1.21,9.29,4.66,18.46,9.57,27.66,14.42h.01ZM363.67,165.52c-2.86-17.82-7.73-33.33-20.13-45.6-2.63-2.59-3.57-6.03,2.51-6.25,1.87-.07,3.67-1.71,4.87-2.32,10.35,5.11,12.72,14.53,14.39,24.3,1.66,9.65,2.47,19.26-1.64,29.87ZM313.91,96.96c6.6-1.71,10.6-5.87,17.02-3.16,3.46,1.46,12.43,7.19,12.72,11.03.11,1.39-1.31,3.49-2.63,4.29-7.46,4.58-7.81,7-1.79,13.44,3.01,3.23,5.69,6.75,8.53,10.14-5.35-2.56-10.49-4.91-14.2-8.67-3.94-3.98-8.8-9.11-9.22-14.07-.89-10.58.18-10.67-10.41-13.01h-.01ZM344.92,262.65c4.7,1.69,9.12,3.65,13.76,4.84,4.98,1.27,9.21,6.28,8.82,11.34-.25,3.19-.41,6.38-.6,9.45-2.84,2.03-5.94,4.24-9.18,6.58-8.05-4.63-13.68-18.95-12.77-32.22h-.01ZM287.9,56.75l.88,2.9c-3.3,4.28-6.46,8.68-9.95,12.79-2.43,2.88-5.77,3.49-8.72.98-5.14-4.39-10.08-9.02-14.82-13.82-.81-.83-.22-3.03-.28-4.61,1.56-.01,3.17-.26,4.68.01,2.08.38,4.06,1.6,6.11,1.67,7.36.21,14.73.08,22.1.08h0ZM337.5,230.18c4.55,17.83-2.5,36.39,4.18,54.91-15.89-8.76-12.97-44.74-4.18-54.91ZM349.96,145.54c7.12,6.53,9.93,18.67,8.07,32.77-5.35-16.24-20.35-25.65-23.36-41.96,9.5,5.07,11.8,15.24,17.92,23.08-.79-4.14-1.56-8.27-2.63-13.9h0ZM61.56,534.98c-3.18-14.39,2.71-31.4,11.75-34.57,1.27,13.02-6.18,22.67-11.75,34.57ZM305.69,95.52c-2.81,8.18.54,12.35,7.78,14.74,1.5.5,2.15,3.56,3.21,5.44-2.05.17-4.74,1.26-6.04.35-9.05-6.29-14.31-15.68-19.34-25.4,4.68,1.58,9.36,3.16,14.4,4.87h0ZM337.33,218.61c.26-2.18.17-3.36.57-4.33,1.45-3.52,3.04-7,4.73-10.41.07-.13,2.59.46,2.64.88.54,4.33.88,8.69,1.09,13.06.04.74-.6,1.84-1.25,2.22-1.73,1-3.73,2.42-5.47,2.23-1.06-.11-1.85-2.86-2.33-3.65h.01ZM350.93,245.59c2.47,2.02,4.64,4.74,7.44,5.87,4.69,1.88,4.09,4.7,2.01,7.58-2.17,3.01-5.22,3.66-8.42,1.01-4.1-3.4-4.64-9.3-1.04-14.46h.01ZM258.53,25.18c4.72-9.85,14.97-15.78,23.63-14.03-7.69,4.57-15.24,9.06-23.63,14.03ZM356.87,221c.33,3.09,1.02,5.23.66,7.17-.74,3.89-2.06,7.68-3.04,11.15-5.49-3.98-5.51-11.04,2.39-18.3h-.01Z"/>
      <path class="cls-1" d="M160.1,96c4.13-15.54-9.12-28.41-25.31-24.68-16.7,3.85-29.6,14.48-37.92,28.39-17.06,28.52-22.6,59.79-15.4,92.69,1.33,6.08,3.38,12.05,5.62,17.86,1.48,3.83,4.84,3.09,6.79.63,2.25-2.84,4.07-6.26,5.16-9.72,10.13-32.24,26.44-60.8,49.94-85.22,3.61-3.75,7.07-7.37,2.46-13.46-2.79-3.66,1.98-7.4,8.66-6.5h-.01Z"/>
      <path class="cls-1" d="M297.8,15.2c9.16,11.68,9.33,23.95,3.46,37.22,15.1,4.21,27.3,12.84,38.83,22.61.49.41,1.39,1.04,1.68.87,7.98-4.81,18.7,2.51,26.17-7.1,6.64-8.52,9.99-17.2,9.05-27.7-1.27-14.38-9.53-24.26-22.27-29.11-18.83-7.14-37.99-7.43-56.91,3.23h-.01Z"/>
      <path class="cls-1" d="M368.13,117.81c6.7,18.24,7.78,36.68,1.81,55.27,5.81,2.6,11.14,4.94,8.7,12.09-1.88,5.51-6.46,6.96-16.08,4.65-1.71,6.59-3.55,13.21-4.95,19.9-.14.71,2.96,3.09,3.53,2.78,5.79-3.07,9.59-.7,13.8,3.43,5.98,5.88,26.53,2.18,30.18-10.31,1.02-3.52,1.96-7.31,1.73-10.9-1.68-26.55-11.04-50.15-28.22-70.52-2.43-2.89-5.73-5.04-8.63-7.54-.63.37-1.25.74-1.88,1.12h.01Z"/>
      <path class="cls-1" d="M45.05,505.01c-2.89,8.34-10.24,12.6-6.18,21.44.96,2.09-1,7.61-3.07,8.65-15.89,7.98-17.7,27.86-12.78,39.31,5.23,12.2,12.94,23.11,24.49,31.73-.21-2.02-.11-4.15-.72-6.04-.93-2.89-2.61-5.54-3.5-8.43-1.58-5.17-.18-8.91,3.73-9.51,2.14-10.81,3.8-20.99,6.25-30.98,2.96-12.04,2.06-23.84-1.29-35.49-.95-3.27-3.81-5.99-6.95-10.69h.01Z"/>
      <path class="cls-1" d="M265.97,82.44c-5.45-6.25-9.68-13.06-15.72-17.26-3.52-2.44-10.67-2.36-14.95-.54-11.21,4.78-21.9,10.86-32.44,17.04-3.28,1.93-5.36,5.88-8,8.9,2.76,1.89,5.31,4.9,8.33,5.47,21.73,4.19,42.17,1.06,60.54-12.04,1.22-.88,2.44-1.75,2.23-1.6v.03Z"/>
      <path class="cls-1" d="M227.85,59.15c8.09-3.52,16.11-7.23,24.31-10.48,6.22-2.46,12.27-2.3,18.97.03,5.98,2.07,12.9,1.5,19.42,1.85,1.06.05,2.48-.87,3.25-1.76,5.76-6.83,5.52-21.9-1.02-27.93-1.81-1.67-6.04-2.09-8.63-1.31-15.65,4.62-27.79,15.14-40.26,25.01-5.61,4.44-11.02,9.14-16.52,13.71.16.29.32.59.47.88h.01Z"/>
      <path class="cls-1" d="M42,490.17c3.22-2.31,6.68-4.35,9.62-6.97,7.77-6.92,12.21-15.94,13.49-26.03.46-3.62-1.43-8.14-3.59-11.37-2.93-4.41-8.12-4.61-10.98-.58-9.32,13.09-12.63,27.72-10.54,43.43.67.51,1.33,1.01,2,1.52h0Z"/>
      <path class="cls-1" d="M327.19,76.69c-9.2-4.84-18.37-9.75-27.66-14.42-.89-.45-3.05.32-3.85,1.21-4.66,5.17-9.09,10.56-14.18,16.56,9.18,5.08,18.32,8.38,28.61,7.58.87-.07,2.17-.84,2.43-1.58,1.7-4.73,5.07-5.23,9.49-4.7,1.54.18,3.31-1.59,4.98-2.47.07-.72.13-1.44.2-2.17h-.01Z"/>
      <path class="cls-1" d="M363.67,165.52c4.11-10.62,3.3-20.23,1.64-29.87-1.68-9.77-4.03-19.19-14.39-24.3-1.21.6-3.01,2.25-4.87,2.32-6.08.24-5.14,3.66-2.51,6.25,12.4,12.26,17.27,27.78,20.13,45.6Z"/>
      <path class="cls-1" d="M313.91,96.96c10.59,2.34,9.51,2.43,10.41,13.01.42,4.96,5.28,10.1,9.22,14.07,3.72,3.75,8.86,6.11,14.2,8.67-2.83-3.39-5.52-6.91-8.53-10.14-6.02-6.46-5.68-8.86,1.79-13.44,1.31-.81,2.73-2.9,2.63-4.29-.29-3.83-9.26-9.57-12.72-11.03-6.4-2.7-10.41,1.46-17.02,3.16h.01Z"/>
      <path class="cls-1" d="M344.92,262.65c-.91,13.29,4.72,27.6,12.77,32.22,3.26-2.32,6.35-4.54,9.18-6.58.2-3.09.35-6.28.6-9.45.39-5.08-3.84-10.07-8.82-11.34-4.63-1.19-9.05-3.15-13.76-4.84h.01Z"/>
      <path class="cls-1" d="M287.9,56.75c-7.37,0-14.74.13-22.1-.08-2.05-.05-4.03-1.29-6.11-1.67-1.51-.28-3.11-.03-4.68-.01.05,1.58-.54,3.78.28,4.61,4.74,4.81,9.68,9.45,14.82,13.82,2.94,2.51,6.29,1.89,8.72-.98,3.48-4.12,6.65-8.52,9.95-12.79l-.88-2.9h0Z"/>
      <path class="cls-1" d="M337.5,230.18c-8.79,10.16-11.71,46.15,4.18,54.91-6.68-18.5.37-37.08-4.18-54.91Z"/>
      <path class="cls-1" d="M349.96,145.54c1.06,5.63,1.85,9.77,2.63,13.9-6.12-7.84-8.42-18.03-17.92-23.08,3,16.31,18.01,25.72,23.36,41.96,1.87-14.1-.95-26.25-8.07-32.77h0Z"/>
      <path class="cls-1" d="M61.56,534.98c5.57-11.89,13.02-21.54,11.75-34.57-9.04,3.16-14.93,20.18-11.75,34.57Z"/>
      <path class="cls-1" d="M305.69,95.52c-5.06-1.71-9.74-3.28-14.4-4.87,5.03,9.73,10.29,19.12,19.34,25.4,1.3.91,3.99-.18,6.04-.35-1.05-1.88-1.7-4.94-3.21-5.44-7.24-2.39-10.59-6.56-7.78-14.74h0Z"/>
      <path class="cls-1" d="M337.33,218.61c.46.8,1.26,3.54,2.33,3.65,1.75.18,3.73-1.23,5.47-2.23.64-.37,1.29-1.47,1.25-2.22-.21-4.36-.55-8.73-1.09-13.06-.05-.42-2.58-1.01-2.64-.88-1.7,3.41-3.28,6.88-4.73,10.41-.39.97-.3,2.15-.57,4.33h-.01Z"/>
      <path class="cls-1" d="M350.93,245.59c-3.61,5.16-3.07,11.05,1.04,14.46,3.21,2.65,6.25,2.01,8.42-1.01,2.06-2.88,2.67-5.71-2.01-7.58-2.81-1.12-4.97-3.85-7.44-5.87h-.01Z"/>
      <path class="cls-1" d="M258.53,25.18c8.38-4.98,15.95-9.48,23.63-14.03-8.66-1.75-18.92,4.19-23.63,14.03Z"/>
      <path class="cls-1" d="M356.87,221c-7.88,7.27-7.87,14.32-2.39,18.3.99-3.47,2.3-7.26,3.04-11.15.37-1.94-.33-4.08-.66-7.17h.01Z"/>
    </g>
  </g>
</svg>