<?xml version="1.0" encoding="UTF-8"?>
<svg id="Layer_1" xmlns="http://www.w3.org/2000/svg" viewBox="0 0 200 50">
  <defs>
    <style>
      .cls-1 {
        fill: #ff4343;
      }
    </style>
  </defs>
  <path class="cls-1" d="M31.9,20.97c.06-.31.12-.77.19-1.36.06-.6.09-1.21.09-1.83,0-1-.19-1.87-.56-2.61-.38-.74-.89-1.34-1.53-1.81-.64-.47-1.4-.82-2.28-1.06-.88-.24-1.82-.35-2.82-.35-1.63,0-3.15.47-4.56,1.41s-2.71,2.16-3.88,3.67c-1.18,1.51-2.23,3.21-3.15,5.1-.93,1.9-1.71,3.8-2.35,5.72-.64,1.91-1.13,3.75-1.46,5.5-.33,1.76-.49,3.26-.49,4.52,0,2.54.69,4.43,2.07,5.67,1.38,1.24,3.34,1.86,5.88,1.86,1.41,0,2.67-.25,3.76-.75,1.1-.5,2.07-1.11,2.92-1.83.85-.72,1.56-1.51,2.14-2.35.58-.85,1.06-1.62,1.43-2.31l.61.33c-.19.38-.53.98-1.04,1.81-.5.83-1.2,1.67-2.09,2.52-.89.85-1.98,1.59-3.27,2.23-1.29.64-2.81.96-4.56.96-2.13,0-3.93-.38-5.39-1.15s-2.63-1.77-3.53-3.01c-.89-1.24-1.54-2.66-1.93-4.26-.39-1.6-.59-3.25-.59-4.94,0-1.91.29-3.76.87-5.55.58-1.79,1.36-3.47,2.35-5.06.99-1.58,2.14-3.03,3.46-4.35s2.71-2.45,4.16-3.39,2.94-1.68,4.45-2.21c1.51-.53,2.95-.8,4.33-.8,1.04,0,1.94.09,2.73.28.78.19,1.48.4,2.09.64.61.24,1.17.45,1.67.64.5.19.99.28,1.46.28.5,0,.91-.13,1.22-.4.31-.27.56-.59.75-.96l.71.14-3.25,9.08h-.61Z"/>
  <path class="cls-1" d="M32.31,31.31c.78-1.65,1.78-3.07,2.99-4.26,1.21-1.19,2.55-2.13,4.02-2.82,1.47-.69,2.89-1.04,4.23-1.04,1.22,0,2.29.25,3.2.75.91.5,1.66,1.15,2.26,1.93.6.78,1.04,1.65,1.32,2.59.28.94.42,1.85.42,2.73,0,1.82-.39,3.54-1.18,5.15-.78,1.62-1.77,3.03-2.96,4.26-1.19,1.22-2.52,2.19-3.98,2.89-1.46.71-2.85,1.06-4.16,1.06-1.13,0-2.14-.22-3.03-.66-.89-.44-1.66-1.02-2.31-1.74-.64-.72-1.14-1.56-1.48-2.52-.35-.96-.52-1.97-.52-3.03,0-1.88.39-3.65,1.18-5.29ZM35.4,42.79c.77.77,1.75,1.15,2.94,1.15.97,0,1.88-.28,2.73-.85.85-.56,1.62-1.31,2.31-2.23.69-.92,1.3-1.95,1.83-3.08.53-1.13.98-2.26,1.34-3.39.36-1.13.64-2.2.82-3.2.19-1,.28-1.82.28-2.45,0-1.51-.32-2.7-.96-3.58-.64-.88-1.76-1.32-3.36-1.32-.91,0-1.77.27-2.59.8-.82.53-1.56,1.23-2.23,2.09-.67.86-1.28,1.84-1.81,2.94-.53,1.1-.98,2.22-1.34,3.36-.36,1.15-.64,2.26-.82,3.34s-.28,2.03-.28,2.85c0,1.6.38,2.78,1.15,3.55Z"/>
  <path class="cls-1" d="M54.94,24.46l.19-.66h7.43l-1.93,5.79h.09c3.04-4.05,5.91-6.07,8.61-6.07,1.32,0,2.36.35,3.13,1.06.77.71,1.15,1.58,1.15,2.61,0,.53-.09,1.06-.26,1.58-.17.52-.38,1.14-.64,1.86l-3.06,8.7c-.19.53-.36,1.06-.52,1.58-.16.52-.24,1.03-.24,1.53,0,.38.08.72.24,1.04.16.31.49.47.99.47.56,0,1.08-.16,1.55-.47.47-.31.9-.69,1.29-1.13.39-.44.73-.9,1.01-1.39.28-.49.5-.9.66-1.25l.52.24c-.16.31-.38.73-.66,1.25-.28.52-.65,1.03-1.11,1.53-.46.5-1.01.93-1.67,1.29s-1.44.54-2.35.54c-1,0-1.85-.22-2.54-.66-.69-.44-1.04-1.16-1.04-2.16,0-.41.05-.83.16-1.27.11-.44.24-.91.4-1.41l3.95-11.24c.25-.75.38-1.38.38-1.88,0-.41-.13-.8-.4-1.18-.27-.38-.75-.56-1.44-.56s-1.49.26-2.4.78c-.91.52-1.82,1.22-2.73,2.12-.91.89-1.76,1.95-2.56,3.15-.8,1.21-1.45,2.52-1.95,3.93l-3.53,9.83h-3.25l6.78-19.53h-4.28Z"/>
  <path class="cls-1" d="M88.21,19.19l-1.69,4.61h5.13l-.19.66h-5.13l-5.36,14.96c-.16.47-.31.96-.47,1.46-.16.5-.24,1-.24,1.51,0,.47.12.85.35,1.13.24.28.62.42,1.15.42.56,0,1.1-.17,1.6-.52.5-.34.96-.74,1.36-1.2.41-.45.75-.92,1.04-1.39.28-.47.49-.85.61-1.13l.56.24c-.13.25-.33.64-.61,1.15-.28.52-.66,1.04-1.13,1.55s-1.06.96-1.76,1.34c-.71.38-1.55.56-2.52.56-1.19,0-2.09-.29-2.68-.87-.6-.58-.89-1.28-.89-2.09,0-.63.12-1.34.35-2.14.24-.8.48-1.53.73-2.19l4.61-12.8h-4.23l.19-.66h4.23l1.69-4.61h3.29Z"/>
  <path class="cls-1" d="M105.78,40.41c-.2.75-.31,1.43-.31,2.02,0,.82.39,1.22,1.18,1.22.63,0,1.19-.18,1.69-.54.5-.36.93-.77,1.29-1.22.36-.45.66-.91.89-1.36.24-.45.4-.78.49-.96l.61.33c-.16.35-.39.78-.71,1.32-.31.53-.72,1.04-1.22,1.53-.5.49-1.08.91-1.74,1.27-.66.36-1.43.54-2.31.54-2.07,0-3.11-.94-3.11-2.82,0-.22.05-.6.14-1.15.09-.55.22-1.04.38-1.48h-.09c-.44.53-.94,1.12-1.51,1.76-.56.64-1.2,1.24-1.91,1.79-.71.55-1.48,1-2.33,1.36-.85.36-1.79.54-2.82.54-.66,0-1.29-.12-1.91-.35-.61-.24-1.15-.6-1.62-1.08-.47-.49-.84-1.11-1.11-1.86-.27-.75-.4-1.65-.4-2.68,0-1.25.25-2.51.75-3.76.5-1.25,1.15-2.45,1.95-3.6.8-1.14,1.72-2.2,2.78-3.18,1.05-.97,2.12-1.82,3.2-2.54,1.08-.72,2.15-1.29,3.2-1.69,1.05-.41,1.98-.61,2.8-.61.94,0,1.74.27,2.4.8.66.53.99,1.24.99,2.12h.09l.8-2.31h3.29l-5.13,14.26c-.28.82-.53,1.6-.73,2.35ZM106.86,27.83c.11-.42.16-.79.16-1.11,0-.28-.04-.59-.12-.92-.08-.33-.22-.64-.42-.92-.2-.28-.48-.52-.82-.73-.35-.2-.8-.31-1.36-.31-1.04,0-2.05.29-3.03.87-.99.58-1.91,1.34-2.78,2.28-.86.94-1.65,2.02-2.38,3.22-.72,1.21-1.34,2.43-1.86,3.67-.52,1.24-.92,2.44-1.2,3.6-.28,1.16-.42,2.18-.42,3.06,0,1,.2,1.82.59,2.45.39.63,1.04.94,1.95.94s1.83-.28,2.78-.85c.94-.56,1.8-1.24,2.59-2.02s1.46-1.57,2.02-2.35c.56-.78.92-1.4,1.08-1.83l2.49-6.92c.38-1,.62-1.72.73-2.14Z"/>
  <path class="cls-1" d="M128.36,41.19c-.52.61-1.11,1.17-1.79,1.67-.67.5-1.45.91-2.33,1.22-.88.31-1.87.47-2.96.47-1.16,0-2.2-.19-3.11-.56-.91-.38-1.67-.89-2.28-1.53-.61-.64-1.08-1.39-1.41-2.23-.33-.85-.49-1.76-.49-2.73,0-1.6.38-3.24,1.13-4.92.75-1.68,1.76-3.21,3.01-4.61,1.25-1.4,2.69-2.54,4.3-3.43,1.62-.89,3.29-1.34,5.01-1.34.53,0,1.06.06,1.58.19.52.13.98.33,1.39.61.41.28.74.67,1.01,1.15.27.49.4,1.09.4,1.81,0,1.04-.26,1.71-.78,2.02-.52.31-1.06.47-1.62.47s-.96-.12-1.18-.35c-.22-.24-.33-.51-.33-.82,0-.38.06-.68.19-.92.13-.24.27-.45.45-.64.17-.19.32-.4.45-.64.12-.24.19-.54.19-.92,0-.5-.18-.85-.54-1.04-.36-.19-.85-.28-1.48-.28-1,0-1.95.25-2.82.75-.88.5-1.69,1.17-2.42,2-.74.83-1.39,1.78-1.95,2.85-.56,1.07-1.05,2.16-1.46,3.29-.41,1.13-.71,2.24-.92,3.34-.2,1.1-.31,2.1-.31,3.01,0,1.35.38,2.49,1.15,3.43.77.94,1.95,1.41,3.55,1.41.88,0,1.69-.16,2.42-.49.74-.33,1.4-.74,2-1.25.6-.5,1.11-1.04,1.55-1.62.44-.58.8-1.11,1.08-1.58l.66.38c-.38.6-.82,1.2-1.34,1.81Z"/>
  <path class="cls-1" d="M143.02,19.19l-1.69,4.61h5.13l-.19.66h-5.13l-5.36,14.96c-.16.47-.31.96-.47,1.46-.16.5-.24,1-.24,1.51,0,.47.12.85.35,1.13.24.28.62.42,1.15.42.56,0,1.1-.17,1.6-.52.5-.34.96-.74,1.36-1.2.41-.45.75-.92,1.04-1.39.28-.47.49-.85.61-1.13l.56.24c-.13.25-.33.64-.61,1.15s-.66,1.04-1.13,1.55c-.47.52-1.06.96-1.76,1.34s-1.55.56-2.52.56c-1.19,0-2.09-.29-2.68-.87-.6-.58-.89-1.28-.89-2.09,0-.63.12-1.34.35-2.14.24-.8.48-1.53.73-2.19l4.61-12.8h-4.23l.19-.66h4.23l1.69-4.61h3.29Z"/>
</svg>